<?xml version="1.0" encoding="UTF-8"?>
<svg width="21px" height="24px" viewBox="0 0 21 24" version="1.1" xmlns="http://www.w3.org/2000/svg" xmlns:xlink="http://www.w3.org/1999/xlink">
    <!-- Generator: Sketch 47 (45396) - http://www.bohemiancoding.com/sketch -->
    <title>Fill 2</title>
    <desc>Created with Sketch.</desc>
    <defs></defs>
    <g id="Page-1" stroke="none" stroke-width="1" fill="none" fill-rule="evenodd">
        <g id="1366(1)-copy-12" transform="translate(-241.000000, -386.000000)" fill="#FFFFFF">
            <g id="Page-1-Copy-3" transform="translate(241.000000, 384.000000)">
                <g id="Group-26" transform="translate(0.000000, 0.592200)">
                    <path d="M14.4566812,17.7885 C14.4566812,15.8342143 13.0168035,14.8570714 10.1383348,14.8570714 L6.19572052,14.8570714 L6.19572052,20.3213571 L10.608,20.3213571 C13.1737875,20.3213571 14.4566812,19.4766429 14.4566812,17.7885 Z M13.4941892,8.36164286 C13.4941892,6.76735714 12.3129491,5.97021429 9.9504687,5.97021429 L6.19572052,5.97021429 L6.19572052,10.9176429 L9.50396507,10.9176429 C10.7405357,10.9176429 11.7261892,10.6669286 12.4622125,10.1667857 C13.1506259,9.68335714 13.4941892,9.08035714 13.4941892,8.36164286 Z M20.9573624,18.3040714 C20.9573624,20.0719286 20.2998311,21.5569286 18.9860553,22.7603571 C17.4368035,24.1823571 15.2081456,24.8933571 12.297508,24.8933571 L0,24.8933571 L0,1.42007143 L10.4201339,1.42007143 C13.4864687,1.42007143 15.7858981,2.04621429 17.3197089,3.29721429 C18.6180437,4.34378571 19.2678544,5.69635714 19.2678544,7.35364286 C19.2678544,9.79135714 18.1959884,11.3316429 16.0522562,11.9732143 C19.3218981,12.8950714 20.9573624,15.0062143 20.9573624,18.3040714 Z" id="Fill-2"></path>
                </g>
            </g>
        </g>
    </g>
</svg>