<?xml version="1.0" encoding="UTF-8"?>
<svg width="27px" height="26px" viewBox="0 0 27 26" version="1.1" xmlns="http://www.w3.org/2000/svg" xmlns:xlink="http://www.w3.org/1999/xlink">
    <!-- Generator: Sketch 47 (45396) - http://www.bohemiancoding.com/sketch -->
    <title>Group 6</title>
    <desc>Created with Sketch.</desc>
    <defs>
        <polygon id="path-1" points="0.711703639 25.7142857 27.114609 25.7142857 27.114609 0.693514286 0.711703639 0.693514286 0.711703639 25.7142857"></polygon>
    </defs>
    <g id="Page-1" stroke="none" stroke-width="1" fill="none" fill-rule="evenodd">
        <g id="1366(1)-copy-12" transform="translate(-361.000000, -385.000000)">
            <g id="Page-1-Copy-3" transform="translate(241.000000, 384.000000)">
                <g id="Group-26" transform="translate(0.000000, 0.592200)">
                    <g id="Group-6" transform="translate(119.668122, 0.000000)">
                        <mask id="mask-2" fill="white">
                            <use xlink:href="#path-1"></use>
                        </mask>
                        <g id="Clip-5"></g>
                        <path d="M20.5199948,13.1688 C20.5199948,11.2775143 19.8894853,9.67937143 18.6310399,8.37308571 C17.3713077,7.06808571 15.8027546,6.41494286 13.9253805,6.41494286 C12.0480064,6.41494286 10.475593,7.06808571 9.20814032,8.37308571 C7.94068763,9.67937143 7.3063179,11.2775143 7.3063179,13.1688 C7.3063179,15.0613714 7.94068763,16.6633714 9.20814032,17.9760857 C10.475593,19.2888 12.0480064,19.9458 13.9253805,19.9458 C15.8027546,19.9458 17.3713077,19.2888 18.6310399,17.9760857 C19.8894853,16.6633714 20.5199948,15.0613714 20.5199948,13.1688 M27.114609,13.1688 C27.114609,16.6080857 25.8716047,19.5472286 23.3830224,21.9862286 C20.832676,24.4715143 17.6801287,25.7148 13.9253805,25.7148 C10.1384635,25.7148 6.97819563,24.4715143 4.444577,21.9862286 C1.95599476,19.5626571 0.711703639,16.6248 0.711703639,13.1688 C0.711703639,9.72951429 1.95599476,6.80708571 4.444577,4.39894286 C6.97819563,1.92908571 10.1384635,0.693514286 13.9253805,0.693514286 C17.6955697,0.693514286 20.848117,1.92908571 23.3830224,4.39894286 C25.8716047,6.80708571 27.114609,9.72951429 27.114609,13.1688" id="Fill-4" fill="#FFFFFF" mask="url(#mask-2)"></path>
                    </g>
                </g>
            </g>
        </g>
    </g>
</svg>